<?xml version="1.0" encoding="utf-8"?>
<svg version="1.1" id="Layer_1" xmlns="http://www.w3.org/2000/svg" xmlns:xlink="http://www.w3.org/1999/xlink" x="0px" y="0px"
	 viewBox="0 0 1080 1080" style="enable-background:new 0 0 1080 1080;" xml:space="preserve">
<style type="text/css">
	.st0{fill:#FFFFFF;}
	.st1{fill:#F2A900;}
</style>
<path class="st0" d="M163.2,540.5c14.2-8.8,38.7-10,60.9-10c15.6,0,38.9-0.9,60.1-8.8c31.1-11.5,48.2-35,48.2-66.1
	c0-30.7-17.7-54.8-49.9-67.8c-25-10.1-51.2-10.9-58.7-10.9H108.7v40h115.2c2.8,0,68.6,0.4,68.6,38.7c0,9.5,0,34.9-68.3,34.9
	c-29.2,0-59.4,1.9-82,16c-24.4,15.2-36.3,41.3-36.3,79.8v20h226v-40H147.4C150.5,550.6,157.2,544.3,163.2,540.5z"/>
<path class="st0" d="M662.9,461.5c-21.2-7.9-44.5-8.8-60.1-8.8h-79.9c1.3-10.3,10.2-35.8,66.3-35.8h120.4v-40H589.3
	c-40.2,0-70,10.8-88.6,32.2c-11.4,13-17.8,29.6-18,46.8v36.9h120.1c68.3,0,68.3,25.4,68.3,34.9c0,38.3-65.8,38.7-68.6,38.7H487.4v40
	h115.2c7.5,0,33.7-0.8,58.7-10.9c32.2-13,49.9-37.1,49.9-67.8C711.1,496.5,694,473,662.9,461.5z"/>
<path class="st0" d="M382.2,376.9h-19.4v40h19.4c7.4-0.1,14.5,3,19.5,8.5c7.1,7.5,15.6,24.1,15.6,60.2v118.1h40V485.6
	c0-39.5-8.9-69.1-26.5-87.7C418.2,384.5,400.6,376.9,382.2,376.9z"/>
<polygon class="st0" points="974.2,376.9 740.6,376.9 740.6,416.9 832.5,416.9 832.5,603.7 872.5,603.7 872.5,416.9 974.2,416.9 "/>
<path class="st1" d="M182.4,647.2c3.7-2.1,7.8-3.2,12.1-3.2c5-0.2,9.9,1.2,14.1,3.8c3.7,2.5,6.6,6.1,8.1,10.3l0.4,1h7.8l-0.8-2
	c-2.1-5.8-5.9-10.9-11-14.4c-5-3.4-11.2-5.2-18.5-5.2c-11.2-0.2-21.6,6-26.8,16c-5.3,10.6-5.3,23.1,0,33.8c2.5,4.8,6.3,8.9,11,11.7
	c4.8,2.8,10.2,4.3,15.8,4.2c7.3,0,13.5-1.7,18.5-5.2c5.1-3.5,8.9-8.6,11-14.4l0.8-2H217l-0.4,1c-1.5,4.2-4.4,7.8-8.1,10.3
	c-4.2,2.6-9.1,4-14.1,3.8c-4.2,0-8.4-1.1-12.1-3.2c-3.6-2.2-6.6-5.3-8.5-9.1c-2.2-4.3-3.3-9.1-3.1-13.9c-0.1-4.9,1-9.7,3.1-14.1
	C175.8,652.6,178.7,649.4,182.4,647.2z"/>
<path class="st1" d="M319.8,639.5l-23.7,63h7.5l5.9-15.7h27l5.9,15.7h7.5l-23.6-63H319.8z M311.8,680.4l11.2-30l11.1,30H311.8z"/>
<path class="st1" d="M439.7,638.1h-18.5v64.3h6.9v-26.9h11.6c7,0,12.4-1.6,16-4.9l0,0c3.7-3.3,5.6-7.9,5.6-13.8s-1.8-10.3-5.5-13.7
	S446.8,638.1,439.7,638.1z M454.4,656.9c0,8.3-4.7,12.1-14.7,12.1h-11.6v-24.4h11.6c5.2,0,9,1,11.3,3.1S454.4,652.9,454.4,656.9z"/>
<rect x="532.7" y="638.1" class="st1" width="6.9" height="64.3"/>
<polygon class="st1" points="610.8,644.5 628.3,644.5 628.3,702.5 635.2,702.5 635.2,644.5 652.7,644.5 652.7,638.1 610.8,638.1 "/>
<path class="st1" d="M747.7,639.5l-23.7,63h7.5l5.9-15.7h27l5.9,15.7h7.5l-23.6-63H747.7z M739.7,680.4l11.2-30l11.1,30H739.7z"/>
<polygon class="st1" points="856,696.2 856,638.1 849,638.1 849,702.5 878.8,702.5 878.8,696.2 "/>
</svg>
